<svg xmlns="http://www.w3.org/2000/svg" viewBox="0 0 120 120" fill="none">
  <defs>
    <linearGradient id="lg" x1="0%" y1="0%" x2="100%" y2="100%">
      <stop offset="0%" stop-color="#F0C75E"/>
      <stop offset="50%" stop-color="#D4A843"/>
      <stop offset="100%" stop-color="#B8892E"/>
    </linearGradient>
  </defs>
  <!-- Signal waves -->
  <g stroke="#D4A843" stroke-width="2.5" stroke-linecap="round" opacity="0.45">
    <path d="M82,38 A22,22 0 0,1 82,82"/>
    <path d="M92,30 A32,32 0 0,1 92,90"/>
    <path d="M102,22 A42,42 0 0,1 102,98"/>
  </g>
  <!-- Lion -->
  <g transform="translate(50,58) scale(0.38)">
    <path d="M-40,-130 C-80,-140 -130,-120 -150,-80 C-170,-40 -160,0 -140,30 C-120,55 -90,70 -60,75 C-80,50 -95,20 -90,-15 C-85,-50 -65,-90 -40,-110 Z" fill="url(#lg)"/>
    <path d="M-30,-135 C-10,-155 20,-160 50,-140 C80,-120 95,-85 90,-55 C85,-25 70,0 50,15 C70,-10 75,-45 65,-75 C55,-105 30,-125 -10,-130 Z" fill="url(#lg)"/>
    <path d="M-50,-120 C-40,-160 -10,-175 25,-165 C60,-155 80,-130 85,-100 C70,-120 45,-140 15,-145 C-15,-150 -40,-140 -50,-120 Z" fill="url(#lg)" opacity="0.9"/>
    <ellipse cx="20" cy="-40" rx="55" ry="50" fill="url(#lg)"/>
    <path d="M55,-55 C80,-50 100,-35 105,-15 C108,0 100,10 85,15 C70,20 55,15 45,5 Z" fill="url(#lg)"/>
    <path d="M50,-10 C70,0 90,15 95,30 C98,42 85,50 70,48 C55,46 42,35 38,20 Z" fill="url(#lg)"/>
    <path d="M60,-10 C75,-5 88,5 90,15 C85,12 75,5 60,-5 Z" fill="#8B4513" opacity="0.5"/>
    <circle cx="10" cy="-55" r="6" fill="#0a0e14"/>
    <circle cx="12" cy="-57" r="2.5" fill="#F0C75E"/>
    <path d="M-60,75 C-90,80 -110,100 -105,130 C-100,155 -75,165 -50,160 C-25,155 -10,140 -5,120 C-15,140 -35,150 -55,148 C-75,146 -90,130 -85,110 C-80,90 -65,80 -45,78 Z" fill="url(#lg)" opacity="0.8"/>
    <path d="M-20,-85 C-15,-105 5,-110 15,-95 C10,-100 0,-100 -10,-90 Z" fill="url(#lg)"/>
  </g>
</svg>
